<?xml version="1.0" encoding="UTF-8"?>
<svg id="Layer_1" data-name="Layer 1" xmlns="http://www.w3.org/2000/svg" viewBox="0 0 799.92 799.92">
  <defs>
    <style>
      .cls-1 {
        fill: #fff;
      }
    </style>
  </defs>
  <path class="cls-1" d="M0,0h799.92v799.92H0V0ZM338.92,708.8c26.52,22.18,60.15,32.56,94.39,29.24,31.6-3.06,60.12-16.22,86.1-33.93,37.66-25.69,70.49-61.48,98.04-97.72,61.5-80.89,111.81-185.44,148.21-280.11,2.36-6.14.61-12.56-2.74-17.59-3.76-5.64-9.66-7.51-16.3-7.38l-12.35.25-13.15-.02c-81.16-.72-161.6-13.38-239.22-37.91,13.86-59.86,21.99-119.76,26.23-180.53.68-6.64-1.27-12.67-6.11-16.9-4.18-3.65-10.89-6.29-17.03-4.26-28.9,9.58-58.19,17.83-88.24,23.91-45.73,9.27-91.9,14.45-138.5,15.37h-32.79c-56.94-1.2-113.25-8.59-168.44-22.33-2.22-.55-3.8-1.02-5.7-.81-11.8,1.33-19.17,11.19-17.38,22.84,6.09,39.78,13.22,79.25,22.52,118.54,18.18,76.85,46.53,164.51,91.03,229.97,11.08,16.3,23.33,31.4,37.43,45.04,20.79,19.62,44.26,34.85,72.5,40.78,5.76,33.65,14.18,66.32,27.66,97.63,12.72,28.93,29.29,55.38,53.84,75.91Z"/>
  <g>
    <path d="M338.92,708.8c-24.55-20.53-41.13-46.98-53.84-75.91-13.48-31.3-21.9-63.97-27.66-97.63-28.24-5.93-51.7-21.16-72.5-40.78-14.11-13.64-26.36-28.74-37.43-45.04-44.49-65.46-72.84-153.13-91.03-229.97-9.29-39.29-16.43-78.75-22.52-118.54-1.78-11.65,5.58-21.51,17.38-22.84,1.9-.21,3.48.26,5.7.81,55.19,13.74,111.5,21.13,168.44,22.34h32.79c46.59-.92,92.77-6.11,138.5-15.38,30.05-6.09,59.34-14.34,88.24-23.91,6.13-2.03,12.85.61,17.03,4.26,4.85,4.23,6.79,10.26,6.11,16.9-4.24,60.77-12.37,120.67-26.23,180.53,77.62,24.53,158.06,37.19,239.22,37.91l13.15.02,12.35-.25c6.64-.14,12.53,1.74,16.3,7.38,3.36,5.03,5.1,11.45,2.74,17.59-36.4,94.67-86.71,199.22-148.21,280.11-27.55,36.24-60.37,72.03-98.04,97.72-25.97,17.71-54.49,30.87-86.1,33.93-34.24,3.32-67.87-7.07-94.39-29.24ZM197.01,266.73c-18.45-1.51-34.8-8.95-48.04-21.26-5.28-4.9-9.41-10.34-13.47-16.27-5.83-8.52-4.18-20.02,3.97-26.16,7.89-5.94,19.48-4.93,25.92,2.97,4.02,4.93,7.86,9.6,12.62,13.79,6.88,6.05,15.77,11.44,24.48,8.08,10.63-4.11,19.75-14.53,26.44-23.85,3.99-5.56,9.88-8.52,16.81-8.17,7.84.4,13.82,5.19,16.85,12.92l2.19-15.48c1.6-11.32,12.2-18.28,23.23-15.93,1.01.22,1.68.28,2.74.82,20.41,12.34,41.37,23.43,62.87,34.02,30.21,14.82,60.94,27.72,92.6,39.25,10.51-47.81,17.69-95.62,22.08-144.41-77.72,22.71-156.83,33.15-236.98,32.01-32.06-.37-63.95-2.73-95.65-6.9-20.27-2.69-39.79-6.18-60.13-10.56,6.33,38.16,13.83,75.11,23.31,112.06,18.11,69.75,45.49,148.82,89.12,206.48,5.53,7.31,11.02,14.1,17.44,20.52l6.02,6.02c8.45,8.46,17.88,15.62,28.29,21.56l11.99,5.79c-3.04-30.4-4.45-59.7-4.51-90.21l-8.54,9.5c-6.22,9.03-18.12,11.59-27.09,5.36s-10.6-18.5-3.95-27.34c11.29-15.02,24.93-28.05,40.82-38.28,1.83-42.75,6.23-84.52,11.83-127.32-4.7,7.4-9.49,13.83-15.88,19.66-12.91,12.18-29.34,19.48-47.36,21.35ZM498.72,671.46c50.31-34.38,93.25-90.63,125.8-141.98,37.85-60.26,68.5-124.3,95.31-190.08-147.79-1.78-293.62-39.96-421.69-113.41-8.78,63.79-14.03,127.17-13.14,191.48.56,30.54,2.42,60.6,6.59,90.81,7.31,53.01,23.29,117.18,58.8,158.12,17.27,19.91,39.67,33.65,66.63,34.21,29.32.61,57.81-12.83,81.7-29.15Z"/>
    <path class="cls-1" d="M498.72,671.46c-23.89,16.32-52.38,29.77-81.7,29.15-26.96-.56-49.37-14.3-66.63-34.21-35.5-40.94-51.49-105.11-58.8-158.12-4.16-30.21-6.03-60.27-6.59-90.81-.9-64.3,4.36-127.69,13.14-191.48,128.07,73.44,273.9,111.63,421.69,113.41-26.81,65.78-57.46,129.81-95.31,190.08-32.55,51.35-75.49,107.61-125.8,141.98ZM392.48,386.83c13.92,5.08,22.56,23.45,28.7,36.56,4.48,9.57,16.04,12.94,24.97,8.7,9.72-4.62,12.61-14.91,9.37-24.83-8.67-26.51-28.43-48.49-55.26-57.42-4.83-1.61-10.28-1.14-15.47-1.07-23.27.29-45.08,10.42-60.77,27.61-6.55,7.17-5.54,18.6,1.03,25.23,6.6,6.67,17.37,7.58,24.99,1.68,5.65-4.38,11.12-8.51,17.44-11.83,7.67-4.04,16.93-7.58,24.99-4.64ZM574.97,445.7c4.98,6.95,8.4,14.37,12.01,22.09,4.42,9.45,15.72,12.98,24.72,8.91,9.82-4.44,12.94-14.72,9.77-24.68-8.51-26.68-28.43-48.39-55.04-57.77-27.32-4.71-54.68,4.6-74.3,23.96-7.27,7.17-9.14,17.71-2.72,26.14,5.73,7.53,17.06,9.84,25.41,4.14l17.63-12.04c4.53-2.43,9.05-4.46,14.03-5.62,12.57-2.93,21.39,4.95,28.51,14.88ZM528.01,577.32c5.86-8.37,5.02-18.81-2.18-25.67-6.4-5.87-18.2-7.34-24.89-.32-15.39,16.15-36.18,25.67-58.77,24.25-6.8-1.69-12.69-5.24-18.03-9.77-12.26-11-22.15-28.09-28.77-43.19-3.27-7.46-9.9-12.27-18.01-12.15-7.45.1-14.72,4.65-17.43,12.09-1.47,4.04-1.84,9.05-.16,13.11,3.65,8.84,7.87,16.95,12.74,25.17,11.2,18.9,26.99,38.18,47.5,46.94,9.03,3.85,18.65,6.72,28.69,6.2,30.25-1.56,58.24-15.02,79.31-36.66Z"/>
    <path class="cls-1" d="M197.01,266.73c18.03-1.86,34.45-9.16,47.36-21.35,6.39-5.83,11.18-12.26,15.88-19.66-5.6,42.79-10,84.56-11.83,127.32-15.88,10.23-29.52,23.25-40.82,38.28-6.65,8.85-4.94,21.16,3.95,27.34s20.86,3.68,27.09-5.36l8.54-9.5c.06,30.5,1.47,59.81,4.51,90.21l-11.99-5.79c-10.41-5.94-19.84-13.1-28.29-21.56l-6.02-6.02c-6.41-6.42-11.91-13.21-17.44-20.52-43.63-57.66-71.01-136.73-89.12-206.48-9.48-36.95-16.98-73.9-23.31-112.06,20.34,4.38,39.87,7.87,60.13,10.56,31.7,4.17,63.59,6.53,95.65,6.9,80.15,1.14,159.25-9.29,236.98-32.01-4.4,48.79-11.57,96.59-22.08,144.41-31.66-11.53-62.39-24.42-92.6-39.25-21.49-10.59-42.46-21.68-62.87-34.02-1.06-.54-1.72-.6-2.74-.82-11.03-2.35-21.63,4.61-23.23,15.93l-2.19,15.48c-3.03-7.74-9.01-12.53-16.85-12.92-6.93-.35-12.81,2.6-16.81,8.17-6.69,9.32-15.81,19.74-26.44,23.85-8.71,3.37-17.61-2.03-24.48-8.08-4.76-4.19-8.6-8.86-12.62-13.79-6.44-7.9-18.03-8.92-25.92-2.97-8.15,6.14-9.8,17.64-3.97,26.16,4.06,5.94,8.19,11.37,13.47,16.27,13.24,12.3,29.59,19.75,48.04,21.26Z"/>
    <g>
      <path d="M528.01,577.32c-21.08,21.64-49.06,35.11-79.31,36.66-10.03.52-19.66-2.35-28.69-6.2-20.51-8.76-36.31-28.04-47.5-46.94-4.87-8.22-9.09-16.34-12.74-25.17-1.68-4.06-1.31-9.07.16-13.11,2.71-7.45,9.97-11.99,17.43-12.09,8.11-.11,14.73,4.69,18.01,12.15,6.62,15.1,16.5,32.2,28.77,43.19,5.34,4.53,11.23,8.08,18.03,9.77,22.59,1.41,43.38-8.11,58.77-24.25,6.69-7.02,18.49-5.54,24.89.32,7.2,6.86,8.04,17.3,2.18,25.67Z"/>
      <g>
        <path d="M574.97,445.7c-7.11-9.93-15.93-17.81-28.51-14.88-4.98,1.16-9.5,3.2-14.03,5.62l-17.63,12.04c-8.36,5.71-19.68,3.39-25.41-4.14-6.41-8.42-4.54-18.97,2.72-26.14,19.62-19.36,46.98-28.67,74.3-23.96,26.61,9.38,46.53,31.09,55.04,57.77,3.18,9.96.06,20.24-9.77,24.68-9,4.07-20.3.54-24.72-8.91-3.61-7.72-7.03-15.14-12.01-22.09Z"/>
        <path d="M392.48,386.83c-8.06-2.94-17.32.6-24.99,4.64-6.32,3.32-11.79,7.46-17.44,11.83-7.62,5.9-18.39,5-24.99-1.68-6.57-6.64-7.58-18.06-1.03-25.23,15.68-17.19,37.5-27.32,60.77-27.61,5.19-.06,10.64-.53,15.47,1.07,26.82,8.93,46.59,30.9,55.26,57.42,3.24,9.92.36,20.2-9.37,24.83-8.92,4.24-20.49.87-24.97-8.7-6.14-13.11-14.78-31.48-28.7-36.56Z"/>
      </g>
    </g>
  </g>
</svg>