<svg fill="#000000" width="800px" height="800px" viewBox="0 0 50 50" xmlns="http://www.w3.org/2000/svg"><path d="M11 3 A 8 8 0 0 0 3 11L3 39 A 8 8 0 0 0 11 47L39 47 A 8 8 0 0 0 47 39L47 11 A 8 8 0 0 0 39 3L11 3 z M 11 5L39 5 A 6 6 0 0 1 45 11L45 39 A 6 6 0 0 1 39 45L11 45 A 6 6 0 0 1 5 39L5 11 A 6 6 0 0 1 11 5 z M 14 11 A 3 3 0 0 0 14 17 A 3 3 0 0 0 14 11 z M 25 11 A 3 3 0 0 0 25 17 A 3 3 0 0 0 25 11 z M 36 11 A 3 3 0 0 0 36 17 A 3 3 0 0 0 36 11 z M 14 22 A 3 3 0 0 0 14 28 A 3 3 0 0 0 14 22 z M 25 22 A 3 3 0 0 0 25 28 A 3 3 0 0 0 25 22 z M 36 22 A 3 3 0 0 0 36 28 A 3 3 0 0 0 36 22 z M 14 33 A 3 3 0 0 0 14 39 A 3 3 0 0 0 14 33 z M 25 33 A 3 3 0 0 0 25 39 A 3 3 0 0 0 25 33 z M 36 33 A 3 3 0 0 0 36 39 A 3 3 0 0 0 36 33 z"/></svg>
