<?xml version="1.0" encoding="UTF-8"?>
<svg id="Layer_1" data-name="Layer 1" xmlns="http://www.w3.org/2000/svg" viewBox="0 0 779.42 779.42">
  <defs>
    <style>
      .cls-1 {
        fill: #fff;
      }
    </style>
  </defs>
  <path class="cls-1" d="M310.89,779.14l-310.89.28V0h779.42v779.42l-311-.26c52.4-4.52,98.79-24.56,137.74-60.3l18.07-18.03c27.86-30.73,51.26-65.2,70.24-102.21,46.2-90.12,65.81-198.23,32.1-295.58-12.22-35.28-31.19-65.82-58.38-91.22-28.86-26.96-64.72-44.5-103.79-50.58-52.34-8.14-103.36,2.64-153.5,16.33l-.23-9.81c-.12-32.46,2.57-64.58,7.81-96.61,2.08-12.73,6-26.9,2.38-39.4-1.82-6.26-6.33-10.94-12.62-12.63-10.26-2.76-20.2-1.05-26.37,7.89-7.21,10.43-8.4,25.73-9.94,38.67l-5.23,43.75c-2.06,22.39-2.98,44.2-2.45,67.16l-24.24-5.99c-11.42-2.82-22.23-5.81-33.91-7.74-41.31-6.9-80.98-7.07-121.22,5.64-50.55,15.96-90.46,50.8-115.53,97.19-21.59,39.96-31.55,86.4-32.4,131.76-1.25,66.99,14.54,133.12,43.8,193.31,13.53,27.84,29.78,53.97,48.34,78.74,12.59,16.79,25.96,32.76,41.07,47.23,24.67,23.63,49.4,40.19,82.22,50.6,19.13,6.07,38.59,10.05,58.52,11.8ZM337.9,90.6c.76-23.08-5.12-43.75-20.87-60.73C299.52,11.66,275.95,3.02,250.95.58c-15.52-.5-29.6-.53-44.27,6.13,3.2,37.68,17.94,75.18,55.77,88.5,23.98,8.45,52.16,5.25,75.44-4.61Z"/>
  <path class="cls-1" d="M443.72,779.42h-108.01l1.87-.43c21.32-1.79,34.1-9.05,50.98-11.68,4.52-.71,9.2.44,13.45,1.89l17.06,5.83c7.18,2.45,14.7,3.15,22.28,3.95l2.36.44Z"/>
  <path d="M337.9,90.6c-23.28,9.85-51.47,13.05-75.44,4.61-37.83-13.32-52.57-50.83-55.77-88.5C221.34.05,235.42.08,250.95.58c25.01,2.45,48.57,11.08,66.08,29.29,15.75,16.99,21.63,37.66,20.87,60.73Z"/>
  <g>
    <path d="M468.42,779.16l-24.7.26-2.36-.44c-7.59-.79-15.1-1.49-22.28-3.95l-17.06-5.83c-4.25-1.45-8.93-2.59-13.45-1.89-16.88,2.63-29.66,9.89-50.98,11.68l-1.87.43-24.82-.28c-19.93-1.75-39.39-5.73-58.52-11.8-32.82-10.41-57.55-26.97-82.22-50.6-15.11-14.47-28.49-30.44-41.07-47.23-18.56-24.77-34.81-50.9-48.34-78.74-29.26-60.19-45.05-126.33-43.8-193.31.85-45.37,10.81-91.81,32.4-131.76,25.07-46.39,64.98-81.23,115.53-97.19,40.24-12.71,79.9-12.54,121.22-5.64,11.68,1.92,22.49,4.91,33.91,7.74l24.24,5.99c-.53-22.96.39-44.77,2.45-67.16l5.23-43.75c1.54-12.93,2.73-28.23,9.94-38.67,6.18-8.94,16.11-10.65,26.37-7.89,6.29,1.69,10.81,6.37,12.62,12.63,3.62,12.5-.3,26.67-2.38,39.4-5.24,32.03-7.93,64.15-7.81,96.61l.23,9.81c50.15-13.69,101.17-24.48,153.5-16.33,39.07,6.08,74.93,23.62,103.79,50.58,27.19,25.4,46.16,55.94,58.38,91.22,33.71,97.35,14.11,205.46-32.1,295.58-18.98,37.01-42.38,71.48-70.24,102.21l-18.07,18.03c-38.95,35.74-85.34,55.78-137.74,60.3ZM461.33,733.26c29.44-.85,57.67-9.17,82.57-24.28,23.2-14.08,44.8-36.42,61.51-57.8,13.14-16.81,25.2-34.33,36.14-52.68,21.63-36.29,37.05-75.5,45.84-116.86,5.12-24.09,8.34-48.32,8.72-72.97.57-37.67-5.06-75.87-21.31-109.98-19.28-40.45-49.69-70.67-92.96-84.28-35.35-11.12-72.77-9.66-109.02-3.46-20.75,3.55-40.57,8.84-60.6,15.01-7.17,2.21-14.33,3.57-21.69,3.36s-14.85-1.02-22.09-3.02l-18.05-4.98c-19.75-6.02-39.47-10.76-59.98-13.76-29.4-4.3-58.67-4.41-87.31,3.93-81.49,23.71-117.92,106.45-119.65,186.21-1.94,89.53,31.12,176.12,85.19,246.68,8.11,10.58,16.5,20.46,25.84,29.77l3.36,3.35c20.54,20.48,45.9,38.36,73.52,47.99,22.12,7.71,45.41,10.04,68.52,6.26l17.92-4.57,19.52-5.26c8.87-1.84,17.6-2.08,26.31.32l21.27,5.88c12.01,3.32,23.47,5.5,36.43,5.12Z"/>
    <path class="cls-1" d="M461.33,733.26c-12.96.38-24.42-1.8-36.43-5.12l-21.27-5.88c-8.71-2.41-17.43-2.16-26.31-.32l-19.52,5.26-17.92,4.57c-23.12,3.78-46.4,1.44-68.52-6.26-27.63-9.62-52.98-27.51-73.52-47.99l-3.36-3.35c-9.34-9.32-17.73-19.19-25.84-29.77-54.07-70.56-87.13-157.15-85.19-246.68,1.72-79.76,38.16-162.5,119.65-186.21,28.64-8.33,57.9-8.22,87.31-3.93,20.51,3,40.23,7.73,59.98,13.76l18.05,4.98c7.24,2,14.5,2.8,22.09,3.02s14.53-1.16,21.69-3.36c20.03-6.17,39.85-11.46,60.6-15.01,36.26-6.2,73.67-7.66,109.02,3.46,43.27,13.61,73.68,43.83,92.96,84.28,16.25,34.11,21.88,72.3,21.31,109.98-.37,24.65-3.6,48.87-8.72,72.97-8.79,41.36-24.21,80.57-45.84,116.86-10.93,18.35-23,35.87-36.14,52.68-16.71,21.37-38.31,43.71-61.51,57.8-24.9,15.12-53.13,23.43-82.57,24.28Z"/>
  </g>
</svg>