<?xml version="1.0" encoding="UTF-8"?>
<svg id="Layer_1" data-name="Layer 1" xmlns="http://www.w3.org/2000/svg" viewBox="0 0 799.92 799.92">
  <defs>
    <style>
      .cls-1 {
        fill: #fff;
      }
    </style>
  </defs>
  
  <g>
    <path d="M338.92,708.8c-24.55-20.53-41.13-46.98-53.84-75.91-13.48-31.3-21.9-63.97-27.66-97.63-28.24-5.93-51.7-21.16-72.5-40.78-14.11-13.64-26.36-28.74-37.43-45.04-44.49-65.46-72.84-153.13-91.03-229.97-9.29-39.29-16.43-78.75-22.52-118.54-1.78-11.65,5.58-21.51,17.38-22.84,1.9-.21,3.48.26,5.7.81,55.19,13.74,111.5,21.13,168.44,22.34h32.79c46.59-.92,92.77-6.11,138.5-15.38,30.05-6.09,59.34-14.34,88.24-23.91,6.13-2.03,12.85.61,17.03,4.26,4.85,4.23,6.79,10.26,6.11,16.9-4.24,60.77-12.37,120.67-26.23,180.53,77.62,24.53,158.06,37.19,239.22,37.91l13.15.02,12.35-.25c6.64-.14,12.53,1.74,16.3,7.38,3.36,5.03,5.1,11.45,2.74,17.59-36.4,94.67-86.71,199.22-148.21,280.11-27.55,36.24-60.37,72.03-98.04,97.72-25.97,17.71-54.49,30.87-86.1,33.93-34.24,3.32-67.87-7.07-94.39-29.24ZM197.01,266.73c-18.45-1.51-34.8-8.95-48.04-21.26-5.28-4.9-9.41-10.34-13.47-16.27-5.83-8.52-4.18-20.02,3.97-26.16,7.89-5.94,19.48-4.93,25.92,2.97,4.02,4.93,7.86,9.6,12.62,13.79,6.88,6.05,15.77,11.44,24.48,8.08,10.63-4.11,19.75-14.53,26.44-23.85,3.99-5.56,9.88-8.52,16.81-8.17,7.84.4,13.82,5.19,16.85,12.92l2.19-15.48c1.6-11.32,12.2-18.28,23.23-15.93,1.01.22,1.68.28,2.74.82,20.41,12.34,41.37,23.43,62.87,34.02,30.21,14.82,60.94,27.72,92.6,39.25,10.51-47.81,17.69-95.62,22.08-144.41-77.72,22.71-156.83,33.15-236.98,32.01-32.06-.37-63.95-2.73-95.65-6.9-20.27-2.69-39.79-6.18-60.13-10.56,6.33,38.16,13.83,75.11,23.31,112.06,18.11,69.75,45.49,148.82,89.12,206.48,5.53,7.31,11.02,14.1,17.44,20.52l6.02,6.02c8.45,8.46,17.88,15.62,28.29,21.56l11.99,5.79c-3.04-30.4-4.45-59.7-4.51-90.21l-8.54,9.5c-6.22,9.03-18.12,11.59-27.09,5.36s-10.6-18.5-3.95-27.34c11.29-15.02,24.93-28.05,40.82-38.28,1.83-42.75,6.23-84.52,11.83-127.32-4.7,7.4-9.49,13.83-15.88,19.66-12.91,12.18-29.34,19.48-47.36,21.35ZM498.72,671.46c50.31-34.38,93.25-90.63,125.8-141.98,37.85-60.26,68.5-124.3,95.31-190.08-147.79-1.78-293.62-39.96-421.69-113.41-8.78,63.79-14.03,127.17-13.14,191.48.56,30.54,2.42,60.6,6.59,90.81,7.31,53.01,23.29,117.18,58.8,158.12,17.27,19.91,39.67,33.65,66.63,34.21,29.32.61,57.81-12.83,81.7-29.15Z"/>
    
    
    <g>
      <path d="M528.01,577.32c-21.08,21.64-49.06,35.11-79.31,36.66-10.03.52-19.66-2.35-28.69-6.2-20.51-8.76-36.31-28.04-47.5-46.94-4.87-8.22-9.09-16.34-12.74-25.17-1.68-4.06-1.31-9.07.16-13.11,2.71-7.45,9.97-11.99,17.43-12.09,8.11-.11,14.73,4.69,18.01,12.15,6.62,15.1,16.5,32.2,28.77,43.19,5.34,4.53,11.23,8.08,18.03,9.77,22.59,1.41,43.38-8.11,58.77-24.25,6.69-7.02,18.49-5.54,24.89.32,7.2,6.86,8.04,17.3,2.18,25.67Z"/>
      <g>
        <path d="M574.97,445.7c-7.11-9.93-15.93-17.81-28.51-14.88-4.98,1.16-9.5,3.2-14.03,5.62l-17.63,12.04c-8.36,5.71-19.68,3.39-25.41-4.14-6.41-8.42-4.54-18.97,2.72-26.14,19.62-19.36,46.98-28.67,74.3-23.96,26.61,9.38,46.53,31.09,55.04,57.77,3.18,9.96.06,20.24-9.77,24.68-9,4.07-20.3.54-24.72-8.91-3.61-7.72-7.03-15.14-12.01-22.09Z"/>
        <path d="M392.48,386.83c-8.06-2.94-17.32.6-24.99,4.64-6.32,3.32-11.79,7.46-17.44,11.83-7.62,5.9-18.39,5-24.99-1.68-6.57-6.64-7.58-18.06-1.03-25.23,15.68-17.19,37.5-27.32,60.77-27.61,5.19-.06,10.64-.53,15.47,1.07,26.82,8.93,46.59,30.9,55.26,57.42,3.24,9.92.36,20.2-9.37,24.83-8.92,4.24-20.49.87-24.97-8.7-6.14-13.11-14.78-31.48-28.7-36.56Z"/>
      </g>
    </g>
  </g>
</svg>